<svg width="25" height="27" viewBox="0 0 25 27" fill="none" xmlns="http://www.w3.org/2000/svg">
<path d="M12.5 26.4173C11.1868 26.4173 9.84132 26.1805 8.46354 25.7069C7.08576 25.2333 5.83715 24.5875 4.71771 23.7694C3.59827 22.9513 2.67774 21.9934 1.95613 20.8954C1.23452 19.7975 0.87414 18.6243 0.875002 17.3757V13.5007L6.04167 17.3757L4.03958 19.3777C4.66389 20.4757 5.65417 21.4229 7.01042 22.2194C8.36667 23.0159 9.76597 23.5218 11.2083 23.7371V12.209H7.33333V9.62565H11.2083V8.10794C10.4549 7.82808 9.83572 7.35964 9.35092 6.70261C8.86611 6.04558 8.62414 5.29771 8.625 4.45898C8.625 3.3826 9.00174 2.46767 9.75521 1.71419C10.5087 0.960721 11.4236 0.583984 12.5 0.583984C13.5764 0.583984 14.4913 0.960721 15.2448 1.71419C15.9983 2.46767 16.375 3.3826 16.375 4.45898C16.375 5.29857 16.1326 6.04687 15.6478 6.7039C15.163 7.36093 14.5443 7.82851 13.7917 8.10665V9.62565H17.6667V12.209H13.7917V23.7371C15.234 23.5218 16.6333 23.0159 17.9896 22.2194C19.3458 21.4229 20.3361 20.4757 20.9604 19.3777L18.9583 17.3757L24.125 13.5007V17.3757C24.125 18.6243 23.7642 19.7975 23.0426 20.8954C22.321 21.9934 21.4009 22.9513 20.2823 23.7694C19.1628 24.5875 17.9142 25.2333 16.5365 25.7069C15.1587 26.1805 13.8132 26.4173 12.5 26.4173ZM12.5 5.75065C12.866 5.75065 13.173 5.62665 13.421 5.37865C13.669 5.13065 13.7925 4.8241 13.7917 4.45898C13.7917 4.09301 13.6677 3.78603 13.4197 3.53803C13.1717 3.29003 12.8651 3.16646 12.5 3.16732C12.134 3.16732 11.827 3.29132 11.579 3.53932C11.331 3.78732 11.2075 4.09387 11.2083 4.45898C11.2083 4.82496 11.3323 5.13194 11.5803 5.37994C11.8283 5.62794 12.1349 5.75151 12.5 5.75065Z" fill="white"/>
</svg>
